<svg xmlns="http://www.w3.org/2000/svg" xmlns:xlink="http://www.w3.org/1999/xlink" version="1.1" baseProfile="full" viewBox="0 0 200 200" width="200" height="200">
<g fill="black">
<path d="M 163.0 133.0 L 163.0 103.7 L 118.0 103.7 L 118.0 123.9 L 117.20485439300538 133.0 Z M 36.5 68.6 L 73.9 68.6 L 79.9 63.6 L 90.9 72.6 L 85.9 76.6 L 85.9 152.8 L 73.9 158.8 L 73.9 146.8 L 36.5 146.8 L 36.5 158.8 L 24.5 164.8 L 24.5 62.6 Z M 36.5 109.7 L 36.5 142.8 L 73.9 142.8 L 73.9 109.7 Z M 36.5 72.6 L 36.5 105.7 L 73.9 105.7 L 73.9 72.6 Z M 118.0 70.4 L 118.0 99.7 L 163.0 99.7 L 163.0 70.4 Z M 142.0 13.2 L 145.0 15.2 L 142.0 17.0 L 142.0 32.7 L 165.0 32.7 L 175.0 22.7 L 187.0 32.7 L 187.0 36.7 L 142.0 36.7 L 142.0 53.3 L 130.0 59.3 L 130.0 36.7 L 105.0 36.7 L 105.0 32.7 L 130.0 32.7 L 130.0 11.2 Z M 70.0 13.2 L 73.0 15.2 L 70.0 17.0 L 70.0 32.7 L 73.0 32.7 L 83.0 22.7 L 95.0 32.7 L 95.0 36.7 L 70.0 36.7 L 70.0 53.3 L 58.0 59.3 L 58.0 36.7 L 13.0 36.7 L 13.0 32.7 L 58.0 32.7 L 58.0 11.2 Z M 174.4 176.7 L 173.6 179.1 L 172.3 181.4 L 170.7 183.4 L 168.7 185.0 L 166.4 186.2 L 164.0 187.1 L 161.5 187.5 L 159.0 187.6 L 159.0 181.6 L 139.0 178.6 L 139.0 175.6 L 160.2 175.6 L 161.1 175.4 L 161.7 175.2 L 162.0 175.0 L 162.2 174.9 L 162.4 174.7 L 162.7 173.8 L 162.9 172.9 L 163.0 171.6 L 163.0 137.0 L 116.51052627563476 137.0 L 115.1 143.7 L 112.0 152.5 L 107.8 160.4 L 102.5 167.3 L 96.1 173.3 L 88.8 178.3 L 80.5 182.2 L 71.3 185.1 L 61.2 186.9 L 60.7 185.2 L 70.0 181.5 L 78.2 177.4 L 85.2 172.8 L 91.1 167.6 L 95.9 161.9 L 99.8 155.7 L 102.7 148.8 L 104.7 141.2 L 105.8 133.0 L 106.0 123.9 L 106.0 60.4 L 118.0 66.4 L 163.0 66.4 L 169.0 61.4 L 180.0 70.4 L 175.0 74.4 L 175.0 171.6 L 174.8 174.2 Z " />
</g>
</svg>
